<mxfile host="app.diagrams.net" modified="2023-02-08T02:46:20.785Z" agent="5.0 (Windows NT 10.0; Win64; x64) AppleWebKit/537.36 (KHTML, like Gecko) Chrome/109.0.0.0 Safari/537.36" etag="uit3NkeO6oqtJ09V_XWG" version="20.8.18" type="github">
  <diagram id="C5RBs43oDa-KdzZeNtuy" name="Page-1">
    <mxGraphModel dx="1434" dy="788" grid="1" gridSize="10" guides="1" tooltips="1" connect="1" arrows="1" fold="1" page="1" pageScale="1" pageWidth="827" pageHeight="1169" math="0" shadow="0">
      <root>
        <mxCell id="WIyWlLk6GJQsqaUBKTNV-0" />
        <mxCell id="WIyWlLk6GJQsqaUBKTNV-1" parent="WIyWlLk6GJQsqaUBKTNV-0" />
        <mxCell id="8u9az_-6E9huGCgLwTI3-13" value="IS" style="edgeStyle=orthogonalEdgeStyle;rounded=0;orthogonalLoop=1;jettySize=auto;html=1;entryX=0;entryY=0.5;entryDx=0;entryDy=0;" parent="WIyWlLk6GJQsqaUBKTNV-1" source="8u9az_-6E9huGCgLwTI3-10" target="8u9az_-6E9huGCgLwTI3-12" edge="1">
          <mxGeometry relative="1" as="geometry" />
        </mxCell>
        <mxCell id="_euS-0L5MUva1uoUSyzm-1" value="IS" style="edgeStyle=orthogonalEdgeStyle;rounded=0;orthogonalLoop=1;jettySize=auto;html=1;" parent="WIyWlLk6GJQsqaUBKTNV-1" source="8u9az_-6E9huGCgLwTI3-10" target="_euS-0L5MUva1uoUSyzm-0" edge="1">
          <mxGeometry relative="1" as="geometry" />
        </mxCell>
        <mxCell id="8u9az_-6E9huGCgLwTI3-10" value="request_type" style="strokeWidth=2;html=1;shape=mxgraph.flowchart.decision;whiteSpace=wrap;" parent="WIyWlLk6GJQsqaUBKTNV-1" vertex="1">
          <mxGeometry x="108" y="490" width="100" height="100" as="geometry" />
        </mxCell>
        <mxCell id="8u9az_-6E9huGCgLwTI3-15" value="And" style="edgeStyle=orthogonalEdgeStyle;rounded=0;orthogonalLoop=1;jettySize=auto;html=1;" parent="WIyWlLk6GJQsqaUBKTNV-1" source="8u9az_-6E9huGCgLwTI3-12" target="8u9az_-6E9huGCgLwTI3-14" edge="1">
          <mxGeometry relative="1" as="geometry" />
        </mxCell>
        <mxCell id="8u9az_-6E9huGCgLwTI3-12" value="authorization" style="rounded=1;whiteSpace=wrap;html=1;fontSize=12;glass=0;strokeWidth=1;shadow=0;" parent="WIyWlLk6GJQsqaUBKTNV-1" vertex="1">
          <mxGeometry x="258" y="520" width="120" height="40" as="geometry" />
        </mxCell>
        <mxCell id="8u9az_-6E9huGCgLwTI3-17" value="is &quot;code&quot;" style="edgeStyle=orthogonalEdgeStyle;rounded=0;orthogonalLoop=1;jettySize=auto;html=1;" parent="WIyWlLk6GJQsqaUBKTNV-1" source="8u9az_-6E9huGCgLwTI3-14" target="8u9az_-6E9huGCgLwTI3-16" edge="1">
          <mxGeometry relative="1" as="geometry">
            <Array as="points">
              <mxPoint x="640" y="540" />
              <mxPoint x="640" y="540" />
            </Array>
          </mxGeometry>
        </mxCell>
        <mxCell id="6J8a5stnOlsp0kq5DlnN-2" style="edgeStyle=orthogonalEdgeStyle;rounded=0;orthogonalLoop=1;jettySize=auto;html=1;entryX=0;entryY=0.5;entryDx=0;entryDy=0;" parent="WIyWlLk6GJQsqaUBKTNV-1" source="8u9az_-6E9huGCgLwTI3-14" target="6J8a5stnOlsp0kq5DlnN-1" edge="1">
          <mxGeometry relative="1" as="geometry" />
        </mxCell>
        <mxCell id="6J8a5stnOlsp0kq5DlnN-3" value="is &quot;token&quot;" style="edgeLabel;html=1;align=center;verticalAlign=middle;resizable=0;points=[];" parent="6J8a5stnOlsp0kq5DlnN-2" vertex="1" connectable="0">
          <mxGeometry x="-0.0805" y="1" relative="1" as="geometry">
            <mxPoint as="offset" />
          </mxGeometry>
        </mxCell>
        <mxCell id="8u9az_-6E9huGCgLwTI3-14" value="response_type" style="strokeWidth=2;html=1;shape=mxgraph.flowchart.decision;whiteSpace=wrap;" parent="WIyWlLk6GJQsqaUBKTNV-1" vertex="1">
          <mxGeometry x="458" y="490" width="100" height="100" as="geometry" />
        </mxCell>
        <mxCell id="6J8a5stnOlsp0kq5DlnN-8" style="edgeStyle=orthogonalEdgeStyle;rounded=0;orthogonalLoop=1;jettySize=auto;html=1;entryX=0.566;entryY=0.05;entryDx=0;entryDy=0;entryPerimeter=0;" parent="WIyWlLk6GJQsqaUBKTNV-1" source="8u9az_-6E9huGCgLwTI3-16" target="6J8a5stnOlsp0kq5DlnN-6" edge="1">
          <mxGeometry relative="1" as="geometry" />
        </mxCell>
        <mxCell id="8u9az_-6E9huGCgLwTI3-16" value="populate_authorization_code = true;" style="rounded=1;whiteSpace=wrap;html=1;fontSize=12;glass=0;strokeWidth=1;shadow=0;" parent="WIyWlLk6GJQsqaUBKTNV-1" vertex="1">
          <mxGeometry x="718" y="520" width="202" height="40" as="geometry" />
        </mxCell>
        <mxCell id="6J8a5stnOlsp0kq5DlnN-0" style="edgeStyle=orthogonalEdgeStyle;rounded=0;orthogonalLoop=1;jettySize=auto;html=1;entryX=0.5;entryY=0;entryDx=0;entryDy=0;entryPerimeter=0;" parent="WIyWlLk6GJQsqaUBKTNV-1" source="FqvtAqR_Rkzib5x8kWpQ-0" target="8u9az_-6E9huGCgLwTI3-10" edge="1">
          <mxGeometry relative="1" as="geometry" />
        </mxCell>
        <mxCell id="FqvtAqR_Rkzib5x8kWpQ-0" value="httpclient_&lt;br&gt;demo" style="rounded=1;whiteSpace=wrap;html=1;absoluteArcSize=1;arcSize=14;strokeWidth=2;" parent="WIyWlLk6GJQsqaUBKTNV-1" vertex="1">
          <mxGeometry x="108" y="320" width="100" height="100" as="geometry" />
        </mxCell>
        <mxCell id="FqvtAqR_Rkzib5x8kWpQ-15" value="request_type =&amp;nbsp;stsuu.getContextAttributes().getAttributeValuesByNameAndType(&quot;request_type&quot;, &quot;urn:ibm:names:ITFIM:oauth:request&quot;);" style="shape=tape;whiteSpace=wrap;html=1;strokeWidth=2;size=0.19" parent="WIyWlLk6GJQsqaUBKTNV-1" vertex="1">
          <mxGeometry x="285" y="34" width="810" height="65" as="geometry" />
        </mxCell>
        <mxCell id="FqvtAqR_Rkzib5x8kWpQ-16" value="response_type =&amp;nbsp;stsuu.getContextAttributes().getAttributeValuesByNameAndType(&quot;response_type&quot;, &quot;urn:ibm:names:ITFIM:oauth:query:param&quot;);" style="shape=tape;whiteSpace=wrap;html=1;strokeWidth=2;size=0.19" parent="WIyWlLk6GJQsqaUBKTNV-1" vertex="1">
          <mxGeometry x="285" y="94" width="810" height="65" as="geometry" />
        </mxCell>
        <mxCell id="FqvtAqR_Rkzib5x8kWpQ-17" value="username =&amp;nbsp;stsuu.getContextAttributes().getAttributeValuesByNameAndType(&quot;username&quot;, &quot;urn:ibm:names:ITFIM:oauth:body:param&quot;);&lt;br&gt;or&lt;br&gt;username =&amp;nbsp;stsuu.getContextAttributes().getAttributeValuesByNameAndType(&quot;username&quot;, &quot;urn:ibm:names:ITFIM:oauth:request&quot;);" style="shape=tape;whiteSpace=wrap;html=1;strokeWidth=2;size=0.19" parent="WIyWlLk6GJQsqaUBKTNV-1" vertex="1">
          <mxGeometry x="285" y="159" width="810" height="65" as="geometry" />
        </mxCell>
        <mxCell id="FqvtAqR_Rkzib5x8kWpQ-18" value="password =&amp;nbsp;stsuu.getContextAttributes().getAttributeValuesByNameAndType(&quot;password&quot;, &quot;urn:ibm:names:ITFIM:oauth:body:param&quot;);" style="shape=tape;whiteSpace=wrap;html=1;strokeWidth=2;size=0.19" parent="WIyWlLk6GJQsqaUBKTNV-1" vertex="1">
          <mxGeometry x="285" y="219" width="810" height="65" as="geometry" />
        </mxCell>
        <mxCell id="6J8a5stnOlsp0kq5DlnN-5" style="edgeStyle=orthogonalEdgeStyle;rounded=0;orthogonalLoop=1;jettySize=auto;html=1;exitX=1;exitY=0.5;exitDx=0;exitDy=0;entryX=0.465;entryY=0;entryDx=0;entryDy=0;entryPerimeter=0;" parent="WIyWlLk6GJQsqaUBKTNV-1" source="_euS-0L5MUva1uoUSyzm-0" target="6J8a5stnOlsp0kq5DlnN-4" edge="1">
          <mxGeometry relative="1" as="geometry" />
        </mxCell>
        <mxCell id="_euS-0L5MUva1uoUSyzm-0" value="access_token" style="rounded=1;whiteSpace=wrap;html=1;fontSize=12;glass=0;strokeWidth=1;shadow=0;" parent="WIyWlLk6GJQsqaUBKTNV-1" vertex="1">
          <mxGeometry x="98" y="647" width="120" height="40" as="geometry" />
        </mxCell>
        <mxCell id="_euS-0L5MUva1uoUSyzm-6" value="clientId =&amp;nbsp;stsuu.getContextAttributes().getAttributeValuesByNameAndType(&quot;client_id&quot;, &quot;urn:ibm:names:ITFIM:oauth:body:param&quot;);&lt;br&gt;or&lt;br&gt;clientId =&amp;nbsp;stsuu.getContextAttributes().getAttributeValuesByNameAndType(&quot;client_id&quot;, &quot;urn:ibm:names:ITFIM:oauth:query:param&quot;);" style="shape=tape;whiteSpace=wrap;html=1;strokeWidth=2;size=0.19" parent="WIyWlLk6GJQsqaUBKTNV-1" vertex="1">
          <mxGeometry x="286" y="278" width="810" height="92" as="geometry" />
        </mxCell>
        <mxCell id="6J8a5stnOlsp0kq5DlnN-10" style="edgeStyle=orthogonalEdgeStyle;rounded=0;orthogonalLoop=1;jettySize=auto;html=1;" parent="WIyWlLk6GJQsqaUBKTNV-1" source="6J8a5stnOlsp0kq5DlnN-1" target="6J8a5stnOlsp0kq5DlnN-9" edge="1">
          <mxGeometry relative="1" as="geometry" />
        </mxCell>
        <mxCell id="6J8a5stnOlsp0kq5DlnN-1" value="populate_access_token = true;" style="rounded=1;whiteSpace=wrap;html=1;fontSize=12;glass=0;strokeWidth=1;shadow=0;" parent="WIyWlLk6GJQsqaUBKTNV-1" vertex="1">
          <mxGeometry x="550" y="640" width="202" height="40" as="geometry" />
        </mxCell>
        <mxCell id="6J8a5stnOlsp0kq5DlnN-12" style="edgeStyle=orthogonalEdgeStyle;rounded=0;orthogonalLoop=1;jettySize=auto;html=1;entryX=0.488;entryY=-0.075;entryDx=0;entryDy=0;entryPerimeter=0;" parent="WIyWlLk6GJQsqaUBKTNV-1" source="6J8a5stnOlsp0kq5DlnN-4" target="6J8a5stnOlsp0kq5DlnN-11" edge="1">
          <mxGeometry relative="1" as="geometry" />
        </mxCell>
        <mxCell id="6J8a5stnOlsp0kq5DlnN-4" value="&lt;div&gt;populate_access_token = true;&lt;/div&gt;&lt;div&gt;   populate_refresh_token = true;&lt;/div&gt;" style="rounded=1;whiteSpace=wrap;html=1;fontSize=12;glass=0;strokeWidth=1;shadow=0;" parent="WIyWlLk6GJQsqaUBKTNV-1" vertex="1">
          <mxGeometry x="70" y="730" width="202" height="40" as="geometry" />
        </mxCell>
        <mxCell id="6J8a5stnOlsp0kq5DlnN-6" value="stsuu.addContextAttribute(new com.tivoli.am.fim.trustserver.sts.uuser.Attribute&lt;br&gt;(&quot;urn:ibm:ITFIM:oauth20:custom:token:authorization_code&quot;,&lt;br&gt;&quot;urn:ibm:ITFIM:oauth20:custom:token&quot;,&quot;MYCUSTOM_AUTHORIZATION_CODE_&quot; + nonce));" style="rounded=1;whiteSpace=wrap;html=1;fontSize=12;glass=0;strokeWidth=1;shadow=0;" parent="WIyWlLk6GJQsqaUBKTNV-1" vertex="1">
          <mxGeometry x="827" y="640" width="640" height="40" as="geometry" />
        </mxCell>
        <mxCell id="6J8a5stnOlsp0kq5DlnN-9" value="stsuu.addContextAttribute(new com.tivoli.am.fim.trustserver.sts.uuser.Attribute&lt;br&gt;(&quot;urn:ibm:ITFIM:oauth20:custom:token:access_token&quot;,&lt;br&gt;&quot;urn:ibm:ITFIM:oauth20:custom:token&quot;,&quot;MYCUSTOM_ACCESS_TOKEN_&quot; + nonce));" style="rounded=1;whiteSpace=wrap;html=1;fontSize=12;glass=0;strokeWidth=1;shadow=0;" parent="WIyWlLk6GJQsqaUBKTNV-1" vertex="1">
          <mxGeometry x="480" y="740" width="640" height="40" as="geometry" />
        </mxCell>
        <mxCell id="6J8a5stnOlsp0kq5DlnN-11" value="stsuu.addContextAttribute(new com.tivoli.am.fim.trustserver.sts.uuser.Attribute&lt;br&gt;(&quot;urn:ibm:ITFIM:oauth20:custom:token:refresh_token&quot;,&lt;br&gt;&quot;urn:ibm:ITFIM:oauth20:custom:token&quot;,&quot;MYCUSTOM_REFRESH_TOKEN_&quot; + nonce));" style="rounded=1;whiteSpace=wrap;html=1;fontSize=12;glass=0;strokeWidth=1;shadow=0;" parent="WIyWlLk6GJQsqaUBKTNV-1" vertex="1">
          <mxGeometry x="70" y="850" width="640" height="40" as="geometry" />
        </mxCell>
      </root>
    </mxGraphModel>
  </diagram>
</mxfile>
